<mxfile host="Electron" agent="Mozilla/5.0 (Windows NT 10.0; Win64; x64) AppleWebKit/537.36 (KHTML, like Gecko) draw.io/24.7.5 Chrome/126.0.6478.183 Electron/31.3.0 Safari/537.36" version="24.7.5">
  <diagram id="C5RBs43oDa-KdzZeNtuy" name="Page-1">
    <mxGraphModel dx="1451" dy="1069" grid="1" gridSize="10" guides="1" tooltips="1" connect="1" arrows="0" fold="1" page="0" pageScale="1" pageWidth="827" pageHeight="1169" math="0" shadow="0">
      <root>
        <mxCell id="WIyWlLk6GJQsqaUBKTNV-0" />
        <mxCell id="WIyWlLk6GJQsqaUBKTNV-1" parent="WIyWlLk6GJQsqaUBKTNV-0" />
        <mxCell id="zkfFHV4jXpPFQw0GAbJ--0" value="UMyAsset" style="swimlane;fontStyle=2;align=center;verticalAlign=top;childLayout=stackLayout;horizontal=1;startSize=26;horizontalStack=0;resizeParent=1;resizeLast=0;collapsible=1;marginBottom=0;rounded=0;shadow=0;strokeWidth=1;" parent="WIyWlLk6GJQsqaUBKTNV-1" vertex="1">
          <mxGeometry x="540" y="-262" width="160" height="40" as="geometry">
            <mxRectangle x="230" y="140" width="160" height="26" as="alternateBounds" />
          </mxGeometry>
        </mxCell>
        <mxCell id="zkfFHV4jXpPFQw0GAbJ--4" value="" style="line;html=1;strokeWidth=1;align=left;verticalAlign=middle;spacingTop=-1;spacingLeft=3;spacingRight=3;rotatable=0;labelPosition=right;points=[];portConstraint=eastwest;" parent="zkfFHV4jXpPFQw0GAbJ--0" vertex="1">
          <mxGeometry y="26" width="160" height="8" as="geometry" />
        </mxCell>
        <mxCell id="_YB7RwbnGkdV1RqKMvM7-6" style="edgeStyle=orthogonalEdgeStyle;rounded=0;orthogonalLoop=1;jettySize=auto;html=1;entryX=0.5;entryY=0;entryDx=0;entryDy=0;" edge="1" parent="WIyWlLk6GJQsqaUBKTNV-1" source="_YB7RwbnGkdV1RqKMvM7-0" target="zkfFHV4jXpPFQw0GAbJ--0">
          <mxGeometry relative="1" as="geometry" />
        </mxCell>
        <mxCell id="_YB7RwbnGkdV1RqKMvM7-0" value="UObject" style="swimlane;fontStyle=2;align=center;verticalAlign=top;childLayout=stackLayout;horizontal=1;startSize=26;horizontalStack=0;resizeParent=1;resizeLast=0;collapsible=1;marginBottom=0;rounded=0;shadow=0;strokeWidth=1;" vertex="1" parent="WIyWlLk6GJQsqaUBKTNV-1">
          <mxGeometry x="540" y="-352" width="160" height="40" as="geometry">
            <mxRectangle x="230" y="140" width="160" height="26" as="alternateBounds" />
          </mxGeometry>
        </mxCell>
        <mxCell id="_YB7RwbnGkdV1RqKMvM7-4" value="" style="line;html=1;strokeWidth=1;align=left;verticalAlign=middle;spacingTop=-1;spacingLeft=3;spacingRight=3;rotatable=0;labelPosition=right;points=[];portConstraint=eastwest;" vertex="1" parent="_YB7RwbnGkdV1RqKMvM7-0">
          <mxGeometry y="26" width="160" height="8" as="geometry" />
        </mxCell>
        <mxCell id="_YB7RwbnGkdV1RqKMvM7-18" style="edgeStyle=orthogonalEdgeStyle;rounded=0;orthogonalLoop=1;jettySize=auto;html=1;entryX=0.5;entryY=0;entryDx=0;entryDy=0;" edge="1" parent="WIyWlLk6GJQsqaUBKTNV-1" source="_YB7RwbnGkdV1RqKMvM7-7" target="_YB7RwbnGkdV1RqKMvM7-11">
          <mxGeometry relative="1" as="geometry" />
        </mxCell>
        <mxCell id="_YB7RwbnGkdV1RqKMvM7-7" value="FAssetTypeActions_Base" style="swimlane;fontStyle=1;align=center;verticalAlign=top;childLayout=stackLayout;horizontal=1;startSize=26;horizontalStack=0;resizeParent=1;resizeParentMax=0;resizeLast=0;collapsible=1;marginBottom=0;whiteSpace=wrap;html=1;" vertex="1" parent="WIyWlLk6GJQsqaUBKTNV-1">
          <mxGeometry x="700" y="-172" width="210" height="34" as="geometry" />
        </mxCell>
        <mxCell id="_YB7RwbnGkdV1RqKMvM7-9" value="" style="line;strokeWidth=1;fillColor=none;align=left;verticalAlign=middle;spacingTop=-1;spacingLeft=3;spacingRight=3;rotatable=0;labelPosition=right;points=[];portConstraint=eastwest;strokeColor=inherit;" vertex="1" parent="_YB7RwbnGkdV1RqKMvM7-7">
          <mxGeometry y="26" width="210" height="8" as="geometry" />
        </mxCell>
        <mxCell id="_YB7RwbnGkdV1RqKMvM7-11" value="FAssetTypeActions_UMyAsset" style="swimlane;fontStyle=1;align=center;verticalAlign=top;childLayout=stackLayout;horizontal=1;startSize=26;horizontalStack=0;resizeParent=1;resizeParentMax=0;resizeLast=0;collapsible=1;marginBottom=0;whiteSpace=wrap;html=1;" vertex="1" parent="WIyWlLk6GJQsqaUBKTNV-1">
          <mxGeometry x="700" y="-90" width="210" height="190" as="geometry" />
        </mxCell>
        <mxCell id="_YB7RwbnGkdV1RqKMvM7-13" value="" style="line;strokeWidth=1;fillColor=none;align=left;verticalAlign=middle;spacingTop=-1;spacingLeft=3;spacingRight=3;rotatable=0;labelPosition=right;points=[];portConstraint=eastwest;strokeColor=inherit;" vertex="1" parent="_YB7RwbnGkdV1RqKMvM7-11">
          <mxGeometry y="26" width="210" height="8" as="geometry" />
        </mxCell>
        <mxCell id="_YB7RwbnGkdV1RqKMvM7-15" value="GetSupportedClass" style="text;strokeColor=none;fillColor=none;align=left;verticalAlign=top;spacingLeft=4;spacingRight=4;overflow=hidden;rotatable=0;points=[[0,0.5],[1,0.5]];portConstraint=eastwest;whiteSpace=wrap;html=1;" vertex="1" parent="_YB7RwbnGkdV1RqKMvM7-11">
          <mxGeometry y="34" width="210" height="26" as="geometry" />
        </mxCell>
        <mxCell id="_YB7RwbnGkdV1RqKMvM7-10" value="GetName" style="text;strokeColor=none;fillColor=none;align=left;verticalAlign=top;spacingLeft=4;spacingRight=4;overflow=hidden;rotatable=0;points=[[0,0.5],[1,0.5]];portConstraint=eastwest;whiteSpace=wrap;html=1;" vertex="1" parent="_YB7RwbnGkdV1RqKMvM7-11">
          <mxGeometry y="60" width="210" height="26" as="geometry" />
        </mxCell>
        <mxCell id="_YB7RwbnGkdV1RqKMvM7-16" value="OpenAssetEditor" style="text;strokeColor=none;fillColor=none;align=left;verticalAlign=top;spacingLeft=4;spacingRight=4;overflow=hidden;rotatable=0;points=[[0,0.5],[1,0.5]];portConstraint=eastwest;whiteSpace=wrap;html=1;" vertex="1" parent="_YB7RwbnGkdV1RqKMvM7-11">
          <mxGeometry y="86" width="210" height="26" as="geometry" />
        </mxCell>
        <mxCell id="_YB7RwbnGkdV1RqKMvM7-39" value="GetTypeColor" style="text;strokeColor=none;fillColor=none;align=left;verticalAlign=top;spacingLeft=4;spacingRight=4;overflow=hidden;rotatable=0;points=[[0,0.5],[1,0.5]];portConstraint=eastwest;whiteSpace=wrap;html=1;" vertex="1" parent="_YB7RwbnGkdV1RqKMvM7-11">
          <mxGeometry y="112" width="210" height="26" as="geometry" />
        </mxCell>
        <mxCell id="_YB7RwbnGkdV1RqKMvM7-17" value="GetCategories" style="text;strokeColor=none;fillColor=none;align=left;verticalAlign=top;spacingLeft=4;spacingRight=4;overflow=hidden;rotatable=0;points=[[0,0.5],[1,0.5]];portConstraint=eastwest;whiteSpace=wrap;html=1;" vertex="1" parent="_YB7RwbnGkdV1RqKMvM7-11">
          <mxGeometry y="138" width="210" height="26" as="geometry" />
        </mxCell>
        <mxCell id="_YB7RwbnGkdV1RqKMvM7-37" value="&lt;b&gt;&lt;i&gt;OpenAssetEditor&lt;/i&gt;&lt;/b&gt;" style="text;strokeColor=none;fillColor=none;align=left;verticalAlign=top;spacingLeft=4;spacingRight=4;overflow=hidden;rotatable=0;points=[[0,0.5],[1,0.5]];portConstraint=eastwest;whiteSpace=wrap;html=1;" vertex="1" parent="_YB7RwbnGkdV1RqKMvM7-11">
          <mxGeometry y="164" width="210" height="26" as="geometry" />
        </mxCell>
        <mxCell id="_YB7RwbnGkdV1RqKMvM7-32" style="edgeStyle=orthogonalEdgeStyle;rounded=0;orthogonalLoop=1;jettySize=auto;html=1;entryX=0.5;entryY=0;entryDx=0;entryDy=0;" edge="1" parent="WIyWlLk6GJQsqaUBKTNV-1" source="_YB7RwbnGkdV1RqKMvM7-19" target="_YB7RwbnGkdV1RqKMvM7-41">
          <mxGeometry relative="1" as="geometry">
            <mxPoint x="440" y="29" as="targetPoint" />
          </mxGeometry>
        </mxCell>
        <mxCell id="_YB7RwbnGkdV1RqKMvM7-19" value="UFactory" style="swimlane;fontStyle=1;align=center;verticalAlign=top;childLayout=stackLayout;horizontal=1;startSize=26;horizontalStack=0;resizeParent=1;resizeParentMax=0;resizeLast=0;collapsible=1;marginBottom=0;whiteSpace=wrap;html=1;" vertex="1" parent="WIyWlLk6GJQsqaUBKTNV-1">
          <mxGeometry x="360" y="-172" width="160" height="34" as="geometry" />
        </mxCell>
        <mxCell id="_YB7RwbnGkdV1RqKMvM7-21" value="" style="line;strokeWidth=1;fillColor=none;align=left;verticalAlign=middle;spacingTop=-1;spacingLeft=3;spacingRight=3;rotatable=0;labelPosition=right;points=[];portConstraint=eastwest;strokeColor=inherit;" vertex="1" parent="_YB7RwbnGkdV1RqKMvM7-19">
          <mxGeometry y="26" width="160" height="8" as="geometry" />
        </mxCell>
        <mxCell id="_YB7RwbnGkdV1RqKMvM7-41" value="&lt;span style=&quot;font-weight: 400;&quot;&gt;UMyAssetFactory&lt;/span&gt;" style="swimlane;fontStyle=1;align=center;verticalAlign=top;childLayout=stackLayout;horizontal=1;startSize=26;horizontalStack=0;resizeParent=1;resizeParentMax=0;resizeLast=0;collapsible=1;marginBottom=0;whiteSpace=wrap;html=1;" vertex="1" parent="WIyWlLk6GJQsqaUBKTNV-1">
          <mxGeometry x="360" y="-90" width="160" height="112" as="geometry" />
        </mxCell>
        <mxCell id="_YB7RwbnGkdV1RqKMvM7-42" value="bCreateNew" style="text;strokeColor=none;fillColor=none;align=left;verticalAlign=top;spacingLeft=4;spacingRight=4;overflow=hidden;rotatable=0;points=[[0,0.5],[1,0.5]];portConstraint=eastwest;whiteSpace=wrap;html=1;" vertex="1" parent="_YB7RwbnGkdV1RqKMvM7-41">
          <mxGeometry y="26" width="160" height="26" as="geometry" />
        </mxCell>
        <mxCell id="_YB7RwbnGkdV1RqKMvM7-45" value="SupportedClass&lt;div&gt;&lt;br&gt;&lt;/div&gt;" style="text;strokeColor=none;fillColor=none;align=left;verticalAlign=top;spacingLeft=4;spacingRight=4;overflow=hidden;rotatable=0;points=[[0,0.5],[1,0.5]];portConstraint=eastwest;whiteSpace=wrap;html=1;" vertex="1" parent="_YB7RwbnGkdV1RqKMvM7-41">
          <mxGeometry y="52" width="160" height="26" as="geometry" />
        </mxCell>
        <mxCell id="_YB7RwbnGkdV1RqKMvM7-43" value="" style="line;strokeWidth=1;fillColor=none;align=left;verticalAlign=middle;spacingTop=-1;spacingLeft=3;spacingRight=3;rotatable=0;labelPosition=right;points=[];portConstraint=eastwest;strokeColor=inherit;" vertex="1" parent="_YB7RwbnGkdV1RqKMvM7-41">
          <mxGeometry y="78" width="160" height="8" as="geometry" />
        </mxCell>
        <mxCell id="_YB7RwbnGkdV1RqKMvM7-44" value="FactoryCreateNew" style="text;strokeColor=none;fillColor=none;align=left;verticalAlign=top;spacingLeft=4;spacingRight=4;overflow=hidden;rotatable=0;points=[[0,0.5],[1,0.5]];portConstraint=eastwest;whiteSpace=wrap;html=1;" vertex="1" parent="_YB7RwbnGkdV1RqKMvM7-41">
          <mxGeometry y="86" width="160" height="26" as="geometry" />
        </mxCell>
        <mxCell id="_YB7RwbnGkdV1RqKMvM7-46" value="FAssetEditor" style="swimlane;fontStyle=1;align=center;verticalAlign=top;childLayout=stackLayout;horizontal=1;startSize=26;horizontalStack=0;resizeParent=1;resizeParentMax=0;resizeLast=0;collapsible=1;marginBottom=0;whiteSpace=wrap;html=1;" vertex="1" parent="WIyWlLk6GJQsqaUBKTNV-1">
          <mxGeometry x="1080" y="40" width="230" height="190" as="geometry" />
        </mxCell>
        <mxCell id="_YB7RwbnGkdV1RqKMvM7-47" value="+ field: type" style="text;strokeColor=none;fillColor=none;align=left;verticalAlign=top;spacingLeft=4;spacingRight=4;overflow=hidden;rotatable=0;points=[[0,0.5],[1,0.5]];portConstraint=eastwest;whiteSpace=wrap;html=1;" vertex="1" parent="_YB7RwbnGkdV1RqKMvM7-46">
          <mxGeometry y="26" width="230" height="26" as="geometry" />
        </mxCell>
        <mxCell id="_YB7RwbnGkdV1RqKMvM7-48" value="" style="line;strokeWidth=1;fillColor=none;align=left;verticalAlign=middle;spacingTop=-1;spacingLeft=3;spacingRight=3;rotatable=0;labelPosition=right;points=[];portConstraint=eastwest;strokeColor=inherit;" vertex="1" parent="_YB7RwbnGkdV1RqKMvM7-46">
          <mxGeometry y="52" width="230" height="8" as="geometry" />
        </mxCell>
        <mxCell id="_YB7RwbnGkdV1RqKMvM7-49" value="InitEditor()" style="text;strokeColor=none;fillColor=none;align=left;verticalAlign=top;spacingLeft=4;spacingRight=4;overflow=hidden;rotatable=0;points=[[0,0.5],[1,0.5]];portConstraint=eastwest;whiteSpace=wrap;html=1;" vertex="1" parent="_YB7RwbnGkdV1RqKMvM7-46">
          <mxGeometry y="60" width="230" height="26" as="geometry" />
        </mxCell>
        <mxCell id="_YB7RwbnGkdV1RqKMvM7-58" value="GetToolkitFName()&lt;span style=&quot;white-space: pre;&quot;&gt;&#x9;&lt;/span&gt;" style="text;strokeColor=none;fillColor=none;align=left;verticalAlign=top;spacingLeft=4;spacingRight=4;overflow=hidden;rotatable=0;points=[[0,0.5],[1,0.5]];portConstraint=eastwest;whiteSpace=wrap;html=1;" vertex="1" parent="_YB7RwbnGkdV1RqKMvM7-46">
          <mxGeometry y="86" width="230" height="26" as="geometry" />
        </mxCell>
        <mxCell id="_YB7RwbnGkdV1RqKMvM7-59" value="GetBaseToolkitName()" style="text;strokeColor=none;fillColor=none;align=left;verticalAlign=top;spacingLeft=4;spacingRight=4;overflow=hidden;rotatable=0;points=[[0,0.5],[1,0.5]];portConstraint=eastwest;whiteSpace=wrap;html=1;" vertex="1" parent="_YB7RwbnGkdV1RqKMvM7-46">
          <mxGeometry y="112" width="230" height="26" as="geometry" />
        </mxCell>
        <mxCell id="_YB7RwbnGkdV1RqKMvM7-60" value="GetWorldCentricTabPrefix()" style="text;strokeColor=none;fillColor=none;align=left;verticalAlign=top;spacingLeft=4;spacingRight=4;overflow=hidden;rotatable=0;points=[[0,0.5],[1,0.5]];portConstraint=eastwest;whiteSpace=wrap;html=1;" vertex="1" parent="_YB7RwbnGkdV1RqKMvM7-46">
          <mxGeometry y="138" width="230" height="26" as="geometry" />
        </mxCell>
        <mxCell id="_YB7RwbnGkdV1RqKMvM7-61" value="GetWorldCentricTabColorScale()" style="text;strokeColor=none;fillColor=none;align=left;verticalAlign=top;spacingLeft=4;spacingRight=4;overflow=hidden;rotatable=0;points=[[0,0.5],[1,0.5]];portConstraint=eastwest;whiteSpace=wrap;html=1;" vertex="1" parent="_YB7RwbnGkdV1RqKMvM7-46">
          <mxGeometry y="164" width="230" height="26" as="geometry" />
        </mxCell>
        <mxCell id="_YB7RwbnGkdV1RqKMvM7-68" style="edgeStyle=orthogonalEdgeStyle;rounded=0;orthogonalLoop=1;jettySize=auto;html=1;entryX=0.5;entryY=0;entryDx=0;entryDy=0;" edge="1" parent="WIyWlLk6GJQsqaUBKTNV-1" source="_YB7RwbnGkdV1RqKMvM7-50" target="_YB7RwbnGkdV1RqKMvM7-46">
          <mxGeometry relative="1" as="geometry" />
        </mxCell>
        <mxCell id="_YB7RwbnGkdV1RqKMvM7-50" value="FWorkflowCentricApplication" style="swimlane;fontStyle=1;align=center;verticalAlign=top;childLayout=stackLayout;horizontal=1;startSize=26;horizontalStack=0;resizeParent=1;resizeParentMax=0;resizeLast=0;collapsible=1;marginBottom=0;whiteSpace=wrap;html=1;" vertex="1" parent="WIyWlLk6GJQsqaUBKTNV-1">
          <mxGeometry x="1080" y="-160" width="230" height="138" as="geometry" />
        </mxCell>
        <mxCell id="_YB7RwbnGkdV1RqKMvM7-52" value="" style="line;strokeWidth=1;fillColor=none;align=left;verticalAlign=middle;spacingTop=-1;spacingLeft=3;spacingRight=3;rotatable=0;labelPosition=right;points=[];portConstraint=eastwest;strokeColor=inherit;" vertex="1" parent="_YB7RwbnGkdV1RqKMvM7-50">
          <mxGeometry y="26" width="230" height="8" as="geometry" />
        </mxCell>
        <mxCell id="_YB7RwbnGkdV1RqKMvM7-64" value="&lt;b&gt;&lt;i&gt;AddApplicationMode(FName, Mode)&lt;/i&gt;&lt;/b&gt;" style="text;strokeColor=none;fillColor=none;align=left;verticalAlign=top;spacingLeft=4;spacingRight=4;overflow=hidden;rotatable=0;points=[[0,0.5],[1,0.5]];portConstraint=eastwest;whiteSpace=wrap;html=1;" vertex="1" parent="_YB7RwbnGkdV1RqKMvM7-50">
          <mxGeometry y="34" width="230" height="26" as="geometry" />
        </mxCell>
        <mxCell id="_YB7RwbnGkdV1RqKMvM7-53" value="&lt;b&gt;&lt;i&gt;SetCurrentMode(FName)&lt;/i&gt;&lt;/b&gt;" style="text;strokeColor=none;fillColor=none;align=left;verticalAlign=top;spacingLeft=4;spacingRight=4;overflow=hidden;rotatable=0;points=[[0,0.5],[1,0.5]];portConstraint=eastwest;whiteSpace=wrap;html=1;" vertex="1" parent="_YB7RwbnGkdV1RqKMvM7-50">
          <mxGeometry y="60" width="230" height="26" as="geometry" />
        </mxCell>
        <mxCell id="_YB7RwbnGkdV1RqKMvM7-65" value="&lt;b&gt;&lt;i&gt;RegisterTabSpawners(TabMgr)&lt;/i&gt;&lt;/b&gt;" style="text;strokeColor=none;fillColor=none;align=left;verticalAlign=top;spacingLeft=4;spacingRight=4;overflow=hidden;rotatable=0;points=[[0,0.5],[1,0.5]];portConstraint=eastwest;whiteSpace=wrap;html=1;" vertex="1" parent="_YB7RwbnGkdV1RqKMvM7-50">
          <mxGeometry y="86" width="230" height="26" as="geometry" />
        </mxCell>
        <mxCell id="_YB7RwbnGkdV1RqKMvM7-66" value="&lt;b&gt;&lt;i&gt;PushTabFactories(TabSet)&lt;/i&gt;&lt;/b&gt;" style="text;strokeColor=none;fillColor=none;align=left;verticalAlign=top;spacingLeft=4;spacingRight=4;overflow=hidden;rotatable=0;points=[[0,0.5],[1,0.5]];portConstraint=eastwest;whiteSpace=wrap;html=1;" vertex="1" parent="_YB7RwbnGkdV1RqKMvM7-50">
          <mxGeometry y="112" width="230" height="26" as="geometry" />
        </mxCell>
        <mxCell id="_YB7RwbnGkdV1RqKMvM7-67" style="edgeStyle=orthogonalEdgeStyle;rounded=0;orthogonalLoop=1;jettySize=auto;html=1;entryX=0.5;entryY=0;entryDx=0;entryDy=0;" edge="1" parent="WIyWlLk6GJQsqaUBKTNV-1" source="_YB7RwbnGkdV1RqKMvM7-54" target="_YB7RwbnGkdV1RqKMvM7-50">
          <mxGeometry relative="1" as="geometry" />
        </mxCell>
        <mxCell id="_YB7RwbnGkdV1RqKMvM7-54" value="FAssetEditorToolkit" style="swimlane;fontStyle=1;align=center;verticalAlign=top;childLayout=stackLayout;horizontal=1;startSize=26;horizontalStack=0;resizeParent=1;resizeParentMax=0;resizeLast=0;collapsible=1;marginBottom=0;whiteSpace=wrap;html=1;fillColor=#008a00;fontColor=#ffffff;strokeColor=#005700;" vertex="1" parent="WIyWlLk6GJQsqaUBKTNV-1">
          <mxGeometry x="1080" y="-280" width="230" height="60" as="geometry" />
        </mxCell>
        <mxCell id="_YB7RwbnGkdV1RqKMvM7-56" value="" style="line;strokeWidth=1;fillColor=none;align=left;verticalAlign=middle;spacingTop=-1;spacingLeft=3;spacingRight=3;rotatable=0;labelPosition=right;points=[];portConstraint=eastwest;strokeColor=inherit;" vertex="1" parent="_YB7RwbnGkdV1RqKMvM7-54">
          <mxGeometry y="26" width="230" height="8" as="geometry" />
        </mxCell>
        <mxCell id="_YB7RwbnGkdV1RqKMvM7-57" value="InitAssetEditor(...)" style="text;strokeColor=none;fillColor=none;align=left;verticalAlign=top;spacingLeft=4;spacingRight=4;overflow=hidden;rotatable=0;points=[[0,0.5],[1,0.5]];portConstraint=eastwest;whiteSpace=wrap;html=1;" vertex="1" parent="_YB7RwbnGkdV1RqKMvM7-54">
          <mxGeometry y="34" width="230" height="26" as="geometry" />
        </mxCell>
        <mxCell id="_YB7RwbnGkdV1RqKMvM7-81" style="edgeStyle=orthogonalEdgeStyle;rounded=0;orthogonalLoop=1;jettySize=auto;html=1;entryX=0.5;entryY=0;entryDx=0;entryDy=0;" edge="1" parent="WIyWlLk6GJQsqaUBKTNV-1" source="_YB7RwbnGkdV1RqKMvM7-69" target="_YB7RwbnGkdV1RqKMvM7-74">
          <mxGeometry relative="1" as="geometry" />
        </mxCell>
        <mxCell id="_YB7RwbnGkdV1RqKMvM7-69" value="FApplicationMode" style="swimlane;fontStyle=1;align=center;verticalAlign=top;childLayout=stackLayout;horizontal=1;startSize=26;horizontalStack=0;resizeParent=1;resizeParentMax=0;resizeLast=0;collapsible=1;marginBottom=0;whiteSpace=wrap;html=1;fillColor=#1ba1e2;fontColor=#ffffff;strokeColor=#006EAF;" vertex="1" parent="WIyWlLk6GJQsqaUBKTNV-1">
          <mxGeometry x="1460" y="-280" width="210" height="164" as="geometry" />
        </mxCell>
        <mxCell id="_YB7RwbnGkdV1RqKMvM7-82" value="TabLayout" style="text;strokeColor=none;fillColor=none;align=left;verticalAlign=top;spacingLeft=4;spacingRight=4;overflow=hidden;rotatable=0;points=[[0,0.5],[1,0.5]];portConstraint=eastwest;whiteSpace=wrap;html=1;" vertex="1" parent="_YB7RwbnGkdV1RqKMvM7-69">
          <mxGeometry y="26" width="210" height="26" as="geometry" />
        </mxCell>
        <mxCell id="_YB7RwbnGkdV1RqKMvM7-70" value="ModeName" style="text;strokeColor=none;fillColor=none;align=left;verticalAlign=top;spacingLeft=4;spacingRight=4;overflow=hidden;rotatable=0;points=[[0,0.5],[1,0.5]];portConstraint=eastwest;whiteSpace=wrap;html=1;" vertex="1" parent="_YB7RwbnGkdV1RqKMvM7-69">
          <mxGeometry y="52" width="210" height="26" as="geometry" />
        </mxCell>
        <mxCell id="_YB7RwbnGkdV1RqKMvM7-73" value="ToolbarExtender" style="text;strokeColor=none;fillColor=none;align=left;verticalAlign=top;spacingLeft=4;spacingRight=4;overflow=hidden;rotatable=0;points=[[0,0.5],[1,0.5]];portConstraint=eastwest;whiteSpace=wrap;html=1;" vertex="1" parent="_YB7RwbnGkdV1RqKMvM7-69">
          <mxGeometry y="78" width="210" height="26" as="geometry" />
        </mxCell>
        <mxCell id="_YB7RwbnGkdV1RqKMvM7-71" value="" style="line;strokeWidth=1;fillColor=none;align=left;verticalAlign=middle;spacingTop=-1;spacingLeft=3;spacingRight=3;rotatable=0;labelPosition=right;points=[];portConstraint=eastwest;strokeColor=inherit;" vertex="1" parent="_YB7RwbnGkdV1RqKMvM7-69">
          <mxGeometry y="104" width="210" height="8" as="geometry" />
        </mxCell>
        <mxCell id="_YB7RwbnGkdV1RqKMvM7-72" value="&lt;i&gt;&lt;b&gt;RegisterTabFactories(TabMgr)&lt;/b&gt;&lt;/i&gt;" style="text;strokeColor=none;fillColor=none;align=left;verticalAlign=top;spacingLeft=4;spacingRight=4;overflow=hidden;rotatable=0;points=[[0,0.5],[1,0.5]];portConstraint=eastwest;whiteSpace=wrap;html=1;" vertex="1" parent="_YB7RwbnGkdV1RqKMvM7-69">
          <mxGeometry y="112" width="210" height="26" as="geometry" />
        </mxCell>
        <mxCell id="_YB7RwbnGkdV1RqKMvM7-179" value="&lt;b&gt;&lt;i&gt;RestoreFromLayout()&lt;/i&gt;&lt;/b&gt;" style="text;strokeColor=none;fillColor=none;align=left;verticalAlign=top;spacingLeft=4;spacingRight=4;overflow=hidden;rotatable=0;points=[[0,0.5],[1,0.5]];portConstraint=eastwest;whiteSpace=wrap;html=1;" vertex="1" parent="_YB7RwbnGkdV1RqKMvM7-69">
          <mxGeometry y="138" width="210" height="26" as="geometry" />
        </mxCell>
        <mxCell id="_YB7RwbnGkdV1RqKMvM7-74" value="FMyAssetEditorMode" style="swimlane;fontStyle=1;align=center;verticalAlign=top;childLayout=stackLayout;horizontal=1;startSize=26;horizontalStack=0;resizeParent=1;resizeParentMax=0;resizeLast=0;collapsible=1;marginBottom=0;whiteSpace=wrap;html=1;" vertex="1" parent="WIyWlLk6GJQsqaUBKTNV-1">
          <mxGeometry x="1460" y="40" width="210" height="86" as="geometry" />
        </mxCell>
        <mxCell id="_YB7RwbnGkdV1RqKMvM7-77" value="" style="line;strokeWidth=1;fillColor=none;align=left;verticalAlign=middle;spacingTop=-1;spacingLeft=3;spacingRight=3;rotatable=0;labelPosition=right;points=[];portConstraint=eastwest;strokeColor=inherit;" vertex="1" parent="_YB7RwbnGkdV1RqKMvM7-74">
          <mxGeometry y="26" width="210" height="8" as="geometry" />
        </mxCell>
        <mxCell id="_YB7RwbnGkdV1RqKMvM7-79" value="&lt;span style=&quot;text-align: center;&quot;&gt;FMyAssetEditorMode(InEditor)&lt;/span&gt;" style="text;strokeColor=none;fillColor=none;align=left;verticalAlign=top;spacingLeft=4;spacingRight=4;overflow=hidden;rotatable=0;points=[[0,0.5],[1,0.5]];portConstraint=eastwest;whiteSpace=wrap;html=1;" vertex="1" parent="_YB7RwbnGkdV1RqKMvM7-74">
          <mxGeometry y="34" width="210" height="26" as="geometry" />
        </mxCell>
        <mxCell id="_YB7RwbnGkdV1RqKMvM7-78" value="&lt;b&gt;&lt;i&gt;RegisterTabFactories(TabMgr)&lt;/i&gt;&lt;/b&gt;" style="text;strokeColor=none;fillColor=none;align=left;verticalAlign=top;spacingLeft=4;spacingRight=4;overflow=hidden;rotatable=0;points=[[0,0.5],[1,0.5]];portConstraint=eastwest;whiteSpace=wrap;html=1;" vertex="1" parent="_YB7RwbnGkdV1RqKMvM7-74">
          <mxGeometry y="60" width="210" height="26" as="geometry" />
        </mxCell>
        <mxCell id="_YB7RwbnGkdV1RqKMvM7-93" style="edgeStyle=orthogonalEdgeStyle;rounded=0;orthogonalLoop=1;jettySize=auto;html=1;entryX=0.5;entryY=0;entryDx=0;entryDy=0;" edge="1" parent="WIyWlLk6GJQsqaUBKTNV-1" source="_YB7RwbnGkdV1RqKMvM7-87" target="_YB7RwbnGkdV1RqKMvM7-94">
          <mxGeometry relative="1" as="geometry">
            <mxPoint x="1910" as="targetPoint" />
          </mxGeometry>
        </mxCell>
        <mxCell id="_YB7RwbnGkdV1RqKMvM7-87" value="FWorkflowTabFactory" style="swimlane;fontStyle=1;align=center;verticalAlign=top;childLayout=stackLayout;horizontal=1;startSize=26;horizontalStack=0;resizeParent=1;resizeParentMax=0;resizeLast=0;collapsible=1;marginBottom=0;whiteSpace=wrap;html=1;fillColor=#f0a30a;fontColor=#000000;strokeColor=#BD7000;" vertex="1" parent="WIyWlLk6GJQsqaUBKTNV-1">
          <mxGeometry x="1800" y="-280" width="240" height="138" as="geometry" />
        </mxCell>
        <mxCell id="_YB7RwbnGkdV1RqKMvM7-88" value="TabIdentifier" style="text;strokeColor=none;fillColor=none;align=left;verticalAlign=top;spacingLeft=4;spacingRight=4;overflow=hidden;rotatable=0;points=[[0,0.5],[1,0.5]];portConstraint=eastwest;whiteSpace=wrap;html=1;" vertex="1" parent="_YB7RwbnGkdV1RqKMvM7-87">
          <mxGeometry y="26" width="240" height="26" as="geometry" />
        </mxCell>
        <mxCell id="_YB7RwbnGkdV1RqKMvM7-91" value="HostingApp" style="text;strokeColor=none;fillColor=none;align=left;verticalAlign=top;spacingLeft=4;spacingRight=4;overflow=hidden;rotatable=0;points=[[0,0.5],[1,0.5]];portConstraint=eastwest;whiteSpace=wrap;html=1;" vertex="1" parent="_YB7RwbnGkdV1RqKMvM7-87">
          <mxGeometry y="52" width="240" height="26" as="geometry" />
        </mxCell>
        <mxCell id="_YB7RwbnGkdV1RqKMvM7-89" value="" style="line;strokeWidth=1;fillColor=none;align=left;verticalAlign=middle;spacingTop=-1;spacingLeft=3;spacingRight=3;rotatable=0;labelPosition=right;points=[];portConstraint=eastwest;strokeColor=inherit;" vertex="1" parent="_YB7RwbnGkdV1RqKMvM7-87">
          <mxGeometry y="78" width="240" height="8" as="geometry" />
        </mxCell>
        <mxCell id="_YB7RwbnGkdV1RqKMvM7-92" value="&lt;b&gt;&lt;i&gt;CreateTabBody(Info)&lt;/i&gt;&lt;/b&gt;" style="text;strokeColor=none;fillColor=none;align=left;verticalAlign=top;spacingLeft=4;spacingRight=4;overflow=hidden;rotatable=0;points=[[0,0.5],[1,0.5]];portConstraint=eastwest;whiteSpace=wrap;html=1;" vertex="1" parent="_YB7RwbnGkdV1RqKMvM7-87">
          <mxGeometry y="86" width="240" height="26" as="geometry" />
        </mxCell>
        <mxCell id="_YB7RwbnGkdV1RqKMvM7-90" value="&lt;b&gt;&lt;i&gt;RegisterTabSpawner(TabMgr, Mode)&lt;/i&gt;&lt;/b&gt;" style="text;strokeColor=none;fillColor=none;align=left;verticalAlign=top;spacingLeft=4;spacingRight=4;overflow=hidden;rotatable=0;points=[[0,0.5],[1,0.5]];portConstraint=eastwest;whiteSpace=wrap;html=1;" vertex="1" parent="_YB7RwbnGkdV1RqKMvM7-87">
          <mxGeometry y="112" width="240" height="26" as="geometry" />
        </mxCell>
        <mxCell id="_YB7RwbnGkdV1RqKMvM7-94" value="FMyAssetTabSummoner" style="swimlane;fontStyle=1;align=center;verticalAlign=top;childLayout=stackLayout;horizontal=1;startSize=26;horizontalStack=0;resizeParent=1;resizeParentMax=0;resizeLast=0;collapsible=1;marginBottom=0;whiteSpace=wrap;html=1;" vertex="1" parent="WIyWlLk6GJQsqaUBKTNV-1">
          <mxGeometry x="1800" y="40" width="240" height="60" as="geometry" />
        </mxCell>
        <mxCell id="_YB7RwbnGkdV1RqKMvM7-97" value="" style="line;strokeWidth=1;fillColor=none;align=left;verticalAlign=middle;spacingTop=-1;spacingLeft=3;spacingRight=3;rotatable=0;labelPosition=right;points=[];portConstraint=eastwest;strokeColor=inherit;" vertex="1" parent="_YB7RwbnGkdV1RqKMvM7-94">
          <mxGeometry y="26" width="240" height="8" as="geometry" />
        </mxCell>
        <mxCell id="_YB7RwbnGkdV1RqKMvM7-98" value="FMyAssetTabSummoner(HostingApp)" style="text;strokeColor=none;fillColor=none;align=left;verticalAlign=top;spacingLeft=4;spacingRight=4;overflow=hidden;rotatable=0;points=[[0,0.5],[1,0.5]];portConstraint=eastwest;whiteSpace=wrap;html=1;" vertex="1" parent="_YB7RwbnGkdV1RqKMvM7-94">
          <mxGeometry y="34" width="240" height="26" as="geometry" />
        </mxCell>
        <mxCell id="_YB7RwbnGkdV1RqKMvM7-102" style="edgeStyle=orthogonalEdgeStyle;rounded=0;orthogonalLoop=1;jettySize=auto;html=1;entryX=0.5;entryY=0;entryDx=0;entryDy=0;" edge="1" parent="WIyWlLk6GJQsqaUBKTNV-1" source="_YB7RwbnGkdV1RqKMvM7-100" target="_YB7RwbnGkdV1RqKMvM7-101">
          <mxGeometry relative="1" as="geometry" />
        </mxCell>
        <mxCell id="_YB7RwbnGkdV1RqKMvM7-100" value="&lt;span style=&quot;font-weight: 700;&quot;&gt;FAssetTypeActions_UMyAsset::&lt;br&gt;OpenAssetEditor&lt;/span&gt;" style="html=1;whiteSpace=wrap;" vertex="1" parent="WIyWlLk6GJQsqaUBKTNV-1">
          <mxGeometry x="432.5" y="360" width="200" height="50" as="geometry" />
        </mxCell>
        <mxCell id="_YB7RwbnGkdV1RqKMvM7-109" style="edgeStyle=orthogonalEdgeStyle;rounded=0;orthogonalLoop=1;jettySize=auto;html=1;entryX=0.5;entryY=0;entryDx=0;entryDy=0;" edge="1" parent="WIyWlLk6GJQsqaUBKTNV-1" source="_YB7RwbnGkdV1RqKMvM7-101" target="_YB7RwbnGkdV1RqKMvM7-103">
          <mxGeometry relative="1" as="geometry" />
        </mxCell>
        <mxCell id="_YB7RwbnGkdV1RqKMvM7-101" value="&lt;span style=&quot;font-weight: 700;&quot;&gt;MyAssetEditor::InitEditor&lt;/span&gt;" style="html=1;whiteSpace=wrap;fillColor=#008a00;fontColor=#ffffff;strokeColor=#005700;" vertex="1" parent="WIyWlLk6GJQsqaUBKTNV-1">
          <mxGeometry x="440" y="480" width="185" height="50" as="geometry" />
        </mxCell>
        <mxCell id="_YB7RwbnGkdV1RqKMvM7-110" style="edgeStyle=orthogonalEdgeStyle;rounded=0;orthogonalLoop=1;jettySize=auto;html=1;entryX=0.5;entryY=0;entryDx=0;entryDy=0;" edge="1" parent="WIyWlLk6GJQsqaUBKTNV-1" source="_YB7RwbnGkdV1RqKMvM7-103" target="_YB7RwbnGkdV1RqKMvM7-105">
          <mxGeometry relative="1" as="geometry" />
        </mxCell>
        <mxCell id="_YB7RwbnGkdV1RqKMvM7-103" value="&lt;span style=&quot;font-weight: 700;&quot;&gt;Super::InitAssetEditor&lt;/span&gt;" style="html=1;whiteSpace=wrap;fillColor=#008a00;fontColor=#ffffff;strokeColor=#005700;" vertex="1" parent="WIyWlLk6GJQsqaUBKTNV-1">
          <mxGeometry x="440" y="600" width="185" height="50" as="geometry" />
        </mxCell>
        <mxCell id="_YB7RwbnGkdV1RqKMvM7-111" style="edgeStyle=orthogonalEdgeStyle;rounded=0;orthogonalLoop=1;jettySize=auto;html=1;entryX=0.5;entryY=0;entryDx=0;entryDy=0;" edge="1" parent="WIyWlLk6GJQsqaUBKTNV-1" source="_YB7RwbnGkdV1RqKMvM7-105" target="_YB7RwbnGkdV1RqKMvM7-107">
          <mxGeometry relative="1" as="geometry" />
        </mxCell>
        <mxCell id="_YB7RwbnGkdV1RqKMvM7-113" style="edgeStyle=orthogonalEdgeStyle;rounded=0;orthogonalLoop=1;jettySize=auto;html=1;entryX=0;entryY=0.5;entryDx=0;entryDy=0;dashed=1;" edge="1" parent="WIyWlLk6GJQsqaUBKTNV-1" source="_YB7RwbnGkdV1RqKMvM7-105" target="_YB7RwbnGkdV1RqKMvM7-112">
          <mxGeometry relative="1" as="geometry" />
        </mxCell>
        <mxCell id="_YB7RwbnGkdV1RqKMvM7-105" value="&lt;span style=&quot;font-weight: 700;&quot;&gt;AddApplicationMode&lt;/span&gt;" style="html=1;whiteSpace=wrap;fillColor=#008a00;fontColor=#ffffff;strokeColor=#005700;" vertex="1" parent="WIyWlLk6GJQsqaUBKTNV-1">
          <mxGeometry x="440" y="720" width="185" height="50" as="geometry" />
        </mxCell>
        <mxCell id="_YB7RwbnGkdV1RqKMvM7-122" style="edgeStyle=orthogonalEdgeStyle;rounded=0;orthogonalLoop=1;jettySize=auto;html=1;entryX=0;entryY=0.5;entryDx=0;entryDy=0;" edge="1" parent="WIyWlLk6GJQsqaUBKTNV-1" source="_YB7RwbnGkdV1RqKMvM7-107" target="_YB7RwbnGkdV1RqKMvM7-121">
          <mxGeometry relative="1" as="geometry" />
        </mxCell>
        <mxCell id="_YB7RwbnGkdV1RqKMvM7-107" value="&lt;span style=&quot;font-weight: 700;&quot;&gt;SetCurrentMode&lt;/span&gt;" style="html=1;whiteSpace=wrap;fillColor=#008a00;fontColor=#ffffff;strokeColor=#005700;" vertex="1" parent="WIyWlLk6GJQsqaUBKTNV-1">
          <mxGeometry x="440" y="840" width="185" height="50" as="geometry" />
        </mxCell>
        <mxCell id="_YB7RwbnGkdV1RqKMvM7-115" style="edgeStyle=orthogonalEdgeStyle;rounded=0;orthogonalLoop=1;jettySize=auto;html=1;entryX=0.5;entryY=0;entryDx=0;entryDy=0;" edge="1" parent="WIyWlLk6GJQsqaUBKTNV-1" source="_YB7RwbnGkdV1RqKMvM7-112" target="_YB7RwbnGkdV1RqKMvM7-114">
          <mxGeometry relative="1" as="geometry" />
        </mxCell>
        <mxCell id="_YB7RwbnGkdV1RqKMvM7-112" value="&lt;span style=&quot;font-weight: 700;&quot;&gt;MyAssetMode::Constructor&lt;/span&gt;" style="html=1;whiteSpace=wrap;fillColor=#1ba1e2;fontColor=#ffffff;strokeColor=#006EAF;" vertex="1" parent="WIyWlLk6GJQsqaUBKTNV-1">
          <mxGeometry x="827.5" y="360" width="185" height="50" as="geometry" />
        </mxCell>
        <mxCell id="_YB7RwbnGkdV1RqKMvM7-117" style="edgeStyle=orthogonalEdgeStyle;rounded=0;orthogonalLoop=1;jettySize=auto;html=1;entryX=0.5;entryY=0;entryDx=0;entryDy=0;" edge="1" parent="WIyWlLk6GJQsqaUBKTNV-1" source="_YB7RwbnGkdV1RqKMvM7-114" target="_YB7RwbnGkdV1RqKMvM7-116">
          <mxGeometry relative="1" as="geometry" />
        </mxCell>
        <mxCell id="_YB7RwbnGkdV1RqKMvM7-119" style="edgeStyle=orthogonalEdgeStyle;rounded=0;orthogonalLoop=1;jettySize=auto;html=1;entryX=0;entryY=0.5;entryDx=0;entryDy=0;dashed=1;" edge="1" parent="WIyWlLk6GJQsqaUBKTNV-1" source="_YB7RwbnGkdV1RqKMvM7-114" target="_YB7RwbnGkdV1RqKMvM7-118">
          <mxGeometry relative="1" as="geometry" />
        </mxCell>
        <mxCell id="_YB7RwbnGkdV1RqKMvM7-130" style="edgeStyle=orthogonalEdgeStyle;rounded=0;orthogonalLoop=1;jettySize=auto;html=1;dashed=1;entryX=0.5;entryY=0;entryDx=0;entryDy=0;" edge="1" parent="WIyWlLk6GJQsqaUBKTNV-1" source="_YB7RwbnGkdV1RqKMvM7-114" target="_YB7RwbnGkdV1RqKMvM7-126">
          <mxGeometry relative="1" as="geometry">
            <mxPoint x="1057.5" y="1105" as="targetPoint" />
            <Array as="points">
              <mxPoint x="1489.5" y="505" />
            </Array>
          </mxGeometry>
        </mxCell>
        <mxCell id="_YB7RwbnGkdV1RqKMvM7-131" value="Use" style="edgeLabel;html=1;align=center;verticalAlign=middle;resizable=0;points=[];" vertex="1" connectable="0" parent="_YB7RwbnGkdV1RqKMvM7-130">
          <mxGeometry x="0.0007" y="-1" relative="1" as="geometry">
            <mxPoint as="offset" />
          </mxGeometry>
        </mxCell>
        <mxCell id="_YB7RwbnGkdV1RqKMvM7-114" value="&lt;b&gt;Register tab factory&lt;/b&gt;&lt;div&gt;&lt;div style=&quot;background-color:#262626;color:#d0d0d0&quot;&gt;&lt;pre style=&quot;font-family:&#39;JetBrains Mono&#39;,monospace;font-size:8.3pt;&quot;&gt;&lt;span style=&quot;color:#c191ff;&quot;&gt;FWorkflowAllowedTabSet::&lt;/span&gt;RegisterFactory&lt;/pre&gt;&lt;/div&gt;&lt;/div&gt;" style="html=1;whiteSpace=wrap;" vertex="1" parent="WIyWlLk6GJQsqaUBKTNV-1">
          <mxGeometry x="805" y="480" width="230" height="50" as="geometry" />
        </mxCell>
        <mxCell id="_YB7RwbnGkdV1RqKMvM7-116" value="&lt;div style=&quot;background-color: rgb(38, 38, 38); color: rgb(208, 208, 208);&quot;&gt;&lt;pre style=&quot;font-family:&#39;JetBrains Mono&#39;,monospace;font-size:8.3pt;&quot;&gt;&lt;span style=&quot;color:#66c3cc;&quot;&gt;TabLayout &lt;/span&gt;&lt;span style=&quot;color:#39cc9b;&quot;&gt;= &lt;/span&gt;&lt;/pre&gt;&lt;pre style=&quot;font-family:&#39;JetBrains Mono&#39;,monospace;font-size:8.3pt;&quot;&gt;&lt;span style=&quot;color:#c191ff;&quot;&gt;FTabManager&lt;/span&gt;::&lt;span style=&quot;color:#39cc9b;&quot;&gt;NewLayout&lt;/span&gt;&lt;span style=&quot;color:#bdbdbd;&quot;&gt;(&lt;/span&gt;&lt;span style=&quot;color:#c9a26d;&quot;&gt;&quot;...&quot;&lt;/span&gt;&lt;span style=&quot;color:#bdbdbd;&quot;&gt;)&lt;/span&gt;&lt;/pre&gt;&lt;/div&gt;" style="html=1;whiteSpace=wrap;" vertex="1" parent="WIyWlLk6GJQsqaUBKTNV-1">
          <mxGeometry x="820" y="600" width="200" height="50" as="geometry" />
        </mxCell>
        <mxCell id="_YB7RwbnGkdV1RqKMvM7-118" value="&lt;span style=&quot;font-weight: 700;&quot;&gt;MyAssetTabFactory::Constructor&lt;/span&gt;" style="html=1;whiteSpace=wrap;fillColor=#f0a30a;fontColor=#000000;strokeColor=#BD7000;" vertex="1" parent="WIyWlLk6GJQsqaUBKTNV-1">
          <mxGeometry x="1362.5" y="360" width="220" height="50" as="geometry" />
        </mxCell>
        <mxCell id="_YB7RwbnGkdV1RqKMvM7-120" value="Set up the Identifier" style="text;html=1;align=center;verticalAlign=middle;whiteSpace=wrap;rounded=0;" vertex="1" parent="WIyWlLk6GJQsqaUBKTNV-1">
          <mxGeometry x="1420" y="410" width="140" height="30" as="geometry" />
        </mxCell>
        <mxCell id="_YB7RwbnGkdV1RqKMvM7-136" style="edgeStyle=orthogonalEdgeStyle;rounded=0;orthogonalLoop=1;jettySize=auto;html=1;entryX=0;entryY=0.5;entryDx=0;entryDy=0;dashed=1;endArrow=diamond;endFill=1;" edge="1" parent="WIyWlLk6GJQsqaUBKTNV-1" source="_YB7RwbnGkdV1RqKMvM7-121" target="_YB7RwbnGkdV1RqKMvM7-124">
          <mxGeometry relative="1" as="geometry" />
        </mxCell>
        <mxCell id="_YB7RwbnGkdV1RqKMvM7-145" style="edgeStyle=orthogonalEdgeStyle;rounded=0;orthogonalLoop=1;jettySize=auto;html=1;entryX=0.5;entryY=0;entryDx=0;entryDy=0;" edge="1" parent="WIyWlLk6GJQsqaUBKTNV-1" source="_YB7RwbnGkdV1RqKMvM7-121" target="_YB7RwbnGkdV1RqKMvM7-144">
          <mxGeometry relative="1" as="geometry" />
        </mxCell>
        <mxCell id="_YB7RwbnGkdV1RqKMvM7-121" value="&lt;span style=&quot;font-weight: 700;&quot;&gt;MyAssetMode::&lt;/span&gt;&lt;div&gt;&lt;span style=&quot;font-weight: 700;&quot;&gt;ActivateMode&lt;/span&gt;&lt;/div&gt;" style="html=1;whiteSpace=wrap;fillColor=#1ba1e2;fontColor=#ffffff;strokeColor=#006EAF;" vertex="1" parent="WIyWlLk6GJQsqaUBKTNV-1">
          <mxGeometry x="827.5" y="840" width="185" height="50" as="geometry" />
        </mxCell>
        <mxCell id="_YB7RwbnGkdV1RqKMvM7-137" style="edgeStyle=orthogonalEdgeStyle;rounded=0;orthogonalLoop=1;jettySize=auto;html=1;entryX=0;entryY=0.5;entryDx=0;entryDy=0;dashed=1;endArrow=diamond;endFill=1;" edge="1" parent="WIyWlLk6GJQsqaUBKTNV-1" source="_YB7RwbnGkdV1RqKMvM7-124" target="_YB7RwbnGkdV1RqKMvM7-126">
          <mxGeometry relative="1" as="geometry" />
        </mxCell>
        <mxCell id="_YB7RwbnGkdV1RqKMvM7-142" style="edgeStyle=orthogonalEdgeStyle;rounded=0;orthogonalLoop=1;jettySize=auto;html=1;entryX=0.5;entryY=0;entryDx=0;entryDy=0;" edge="1" parent="WIyWlLk6GJQsqaUBKTNV-1" source="_YB7RwbnGkdV1RqKMvM7-124" target="_YB7RwbnGkdV1RqKMvM7-143">
          <mxGeometry relative="1" as="geometry">
            <mxPoint x="1212.5" y="960" as="targetPoint" />
          </mxGeometry>
        </mxCell>
        <mxCell id="_YB7RwbnGkdV1RqKMvM7-124" value="&lt;div&gt;&lt;span style=&quot;font-weight: 700;&quot;&gt;MyAssetMode::&lt;/span&gt;&lt;b&gt;&lt;br&gt;&lt;/b&gt;&lt;/div&gt;&lt;b&gt;RegisterTabFactories&lt;/b&gt;" style="html=1;whiteSpace=wrap;fillColor=#1ba1e2;fontColor=#ffffff;strokeColor=#006EAF;" vertex="1" parent="WIyWlLk6GJQsqaUBKTNV-1">
          <mxGeometry x="1120" y="840" width="185" height="50" as="geometry" />
        </mxCell>
        <mxCell id="_YB7RwbnGkdV1RqKMvM7-138" style="edgeStyle=orthogonalEdgeStyle;rounded=0;orthogonalLoop=1;jettySize=auto;html=1;exitX=0.5;exitY=1;exitDx=0;exitDy=0;entryX=0.5;entryY=0;entryDx=0;entryDy=0;" edge="1" parent="WIyWlLk6GJQsqaUBKTNV-1" source="_YB7RwbnGkdV1RqKMvM7-126" target="_YB7RwbnGkdV1RqKMvM7-132">
          <mxGeometry relative="1" as="geometry" />
        </mxCell>
        <mxCell id="_YB7RwbnGkdV1RqKMvM7-126" value="&lt;div&gt;&lt;span style=&quot;font-weight: 700; background-color: initial;&quot;&gt;MyAssetEditor&lt;/span&gt;&lt;span style=&quot;font-weight: 700;&quot;&gt;::&lt;/span&gt;&lt;b&gt;&lt;br&gt;&lt;/b&gt;&lt;/div&gt;&lt;b&gt;PushTabFactories&lt;/b&gt;" style="html=1;whiteSpace=wrap;fillColor=#008a00;fontColor=#ffffff;strokeColor=#005700;" vertex="1" parent="WIyWlLk6GJQsqaUBKTNV-1">
          <mxGeometry x="1397.5" y="840" width="185" height="50" as="geometry" />
        </mxCell>
        <mxCell id="_YB7RwbnGkdV1RqKMvM7-134" style="edgeStyle=orthogonalEdgeStyle;rounded=0;orthogonalLoop=1;jettySize=auto;html=1;entryX=0.5;entryY=0;entryDx=0;entryDy=0;" edge="1" parent="WIyWlLk6GJQsqaUBKTNV-1" source="_YB7RwbnGkdV1RqKMvM7-132" target="_YB7RwbnGkdV1RqKMvM7-135">
          <mxGeometry relative="1" as="geometry">
            <mxPoint x="947.5" y="1210" as="targetPoint" />
          </mxGeometry>
        </mxCell>
        <mxCell id="_YB7RwbnGkdV1RqKMvM7-132" value="&lt;span style=&quot;font-weight: 700;&quot;&gt;MyAssetTabFactory::&lt;/span&gt;&lt;div&gt;&lt;span style=&quot;font-weight: 700;&quot;&gt;RegisterTabSpawner&lt;/span&gt;&lt;/div&gt;" style="html=1;whiteSpace=wrap;fillColor=#f0a30a;fontColor=#000000;strokeColor=#BD7000;" vertex="1" parent="WIyWlLk6GJQsqaUBKTNV-1">
          <mxGeometry x="1395" y="960" width="190" height="50" as="geometry" />
        </mxCell>
        <mxCell id="_YB7RwbnGkdV1RqKMvM7-166" style="edgeStyle=orthogonalEdgeStyle;rounded=0;orthogonalLoop=1;jettySize=auto;html=1;entryX=1;entryY=0.5;entryDx=0;entryDy=0;dashed=1;endArrow=oval;endFill=1;" edge="1" parent="WIyWlLk6GJQsqaUBKTNV-1" source="_YB7RwbnGkdV1RqKMvM7-135" target="_YB7RwbnGkdV1RqKMvM7-158">
          <mxGeometry relative="1" as="geometry" />
        </mxCell>
        <mxCell id="_YB7RwbnGkdV1RqKMvM7-175" value="注册回调" style="edgeLabel;html=1;align=center;verticalAlign=middle;resizable=0;points=[];" vertex="1" connectable="0" parent="_YB7RwbnGkdV1RqKMvM7-166">
          <mxGeometry x="-0.0468" y="-1" relative="1" as="geometry">
            <mxPoint as="offset" />
          </mxGeometry>
        </mxCell>
        <mxCell id="_YB7RwbnGkdV1RqKMvM7-135" value="&lt;b&gt;TabManager::&lt;/b&gt;&lt;div&gt;&lt;b&gt;RegisterTabSpawner&lt;/b&gt;&lt;/div&gt;" style="html=1;whiteSpace=wrap;fillColor=#647687;fontColor=#ffffff;strokeColor=#314354;" vertex="1" parent="WIyWlLk6GJQsqaUBKTNV-1">
          <mxGeometry x="1395" y="1120" width="190" height="50" as="geometry" />
        </mxCell>
        <mxCell id="_YB7RwbnGkdV1RqKMvM7-146" style="edgeStyle=orthogonalEdgeStyle;rounded=0;orthogonalLoop=1;jettySize=auto;html=1;entryX=1;entryY=0.5;entryDx=0;entryDy=0;dashed=1;" edge="1" parent="WIyWlLk6GJQsqaUBKTNV-1" source="_YB7RwbnGkdV1RqKMvM7-143" target="_YB7RwbnGkdV1RqKMvM7-144">
          <mxGeometry relative="1" as="geometry" />
        </mxCell>
        <mxCell id="_YB7RwbnGkdV1RqKMvM7-147" value="Return&lt;div&gt;NewLayout&lt;/div&gt;" style="edgeLabel;html=1;align=center;verticalAlign=middle;resizable=0;points=[];" vertex="1" connectable="0" parent="_YB7RwbnGkdV1RqKMvM7-146">
          <mxGeometry x="-0.0114" y="-1" relative="1" as="geometry">
            <mxPoint as="offset" />
          </mxGeometry>
        </mxCell>
        <mxCell id="_YB7RwbnGkdV1RqKMvM7-143" value="&lt;div style=&quot;background-color:#262626;color:#d0d0d0&quot;&gt;&lt;pre style=&quot;font-family:&#39;JetBrains Mono&#39;,monospace;font-size:8.3pt;&quot;&gt;&lt;span style=&quot;color:#e1bfff;&quot;&gt;FLayoutSaveRestore&lt;/span&gt;::&lt;/pre&gt;&lt;pre style=&quot;font-family:&#39;JetBrains Mono&#39;,monospace;font-size:8.3pt;&quot;&gt;&lt;span style=&quot;color:#39cc9b;&quot;&gt;LoadFromConfig&lt;/span&gt;&lt;/pre&gt;&lt;/div&gt;" style="html=1;whiteSpace=wrap;" vertex="1" parent="WIyWlLk6GJQsqaUBKTNV-1">
          <mxGeometry x="1120" y="960" width="185" height="50" as="geometry" />
        </mxCell>
        <mxCell id="_YB7RwbnGkdV1RqKMvM7-162" style="edgeStyle=orthogonalEdgeStyle;rounded=0;orthogonalLoop=1;jettySize=auto;html=1;entryX=0.5;entryY=0;entryDx=0;entryDy=0;exitX=0.5;exitY=1;exitDx=0;exitDy=0;" edge="1" parent="WIyWlLk6GJQsqaUBKTNV-1" source="_YB7RwbnGkdV1RqKMvM7-144" target="_YB7RwbnGkdV1RqKMvM7-154">
          <mxGeometry relative="1" as="geometry" />
        </mxCell>
        <mxCell id="_YB7RwbnGkdV1RqKMvM7-163" value="一系列UI操作" style="edgeLabel;html=1;align=center;verticalAlign=middle;resizable=0;points=[];" vertex="1" connectable="0" parent="_YB7RwbnGkdV1RqKMvM7-162">
          <mxGeometry x="0.1216" y="2" relative="1" as="geometry">
            <mxPoint as="offset" />
          </mxGeometry>
        </mxCell>
        <mxCell id="_YB7RwbnGkdV1RqKMvM7-144" value="&lt;span style=&quot;font-weight: 700;&quot;&gt;MyAssetMode::&lt;/span&gt;&lt;div&gt;&lt;span style=&quot;font-weight: 700;&quot;&gt;RestoreFromLayout&lt;/span&gt;&lt;/div&gt;" style="html=1;whiteSpace=wrap;fillColor=#1ba1e2;fontColor=#ffffff;strokeColor=#006EAF;" vertex="1" parent="WIyWlLk6GJQsqaUBKTNV-1">
          <mxGeometry x="827.5" y="960" width="185" height="50" as="geometry" />
        </mxCell>
        <mxCell id="_YB7RwbnGkdV1RqKMvM7-151" style="edgeStyle=orthogonalEdgeStyle;rounded=0;orthogonalLoop=1;jettySize=auto;html=1;entryX=0.5;entryY=0;entryDx=0;entryDy=0;" edge="1" parent="WIyWlLk6GJQsqaUBKTNV-1" source="_YB7RwbnGkdV1RqKMvM7-150">
          <mxGeometry relative="1" as="geometry">
            <mxPoint x="532.5" y="1140" as="targetPoint" />
          </mxGeometry>
        </mxCell>
        <mxCell id="_YB7RwbnGkdV1RqKMvM7-159" style="edgeStyle=orthogonalEdgeStyle;rounded=0;orthogonalLoop=1;jettySize=auto;html=1;entryX=0;entryY=0.5;entryDx=0;entryDy=0;" edge="1" parent="WIyWlLk6GJQsqaUBKTNV-1" source="_YB7RwbnGkdV1RqKMvM7-154" target="_YB7RwbnGkdV1RqKMvM7-158">
          <mxGeometry relative="1" as="geometry" />
        </mxCell>
        <mxCell id="_YB7RwbnGkdV1RqKMvM7-154" value="&lt;span style=&quot;font-weight: 700;&quot;&gt;FTabManager::&lt;/span&gt;&lt;div&gt;&lt;span style=&quot;font-weight: 700;&quot;&gt;SpawnTab&lt;/span&gt;&lt;/div&gt;" style="html=1;whiteSpace=wrap;fillColor=#647687;fontColor=#ffffff;strokeColor=#314354;" vertex="1" parent="WIyWlLk6GJQsqaUBKTNV-1">
          <mxGeometry x="440" y="1120" width="185" height="50" as="geometry" />
        </mxCell>
        <mxCell id="_YB7RwbnGkdV1RqKMvM7-160" style="edgeStyle=orthogonalEdgeStyle;rounded=0;orthogonalLoop=1;jettySize=auto;html=1;entryX=0.5;entryY=0;entryDx=0;entryDy=0;exitX=0.5;exitY=1;exitDx=0;exitDy=0;" edge="1" parent="WIyWlLk6GJQsqaUBKTNV-1" source="_YB7RwbnGkdV1RqKMvM7-158" target="_YB7RwbnGkdV1RqKMvM7-161">
          <mxGeometry relative="1" as="geometry">
            <mxPoint x="860" y="1340" as="targetPoint" />
          </mxGeometry>
        </mxCell>
        <mxCell id="_YB7RwbnGkdV1RqKMvM7-176" value="回调调用" style="edgeLabel;html=1;align=center;verticalAlign=middle;resizable=0;points=[];" vertex="1" connectable="0" parent="_YB7RwbnGkdV1RqKMvM7-160">
          <mxGeometry x="-0.1662" y="1" relative="1" as="geometry">
            <mxPoint x="-21" as="offset" />
          </mxGeometry>
        </mxCell>
        <mxCell id="_YB7RwbnGkdV1RqKMvM7-158" value="&lt;div style=&quot;background-color:#262626;color:#d0d0d0&quot;&gt;&lt;pre style=&quot;font-family:&#39;JetBrains Mono&#39;,monospace;font-size:8.3pt;&quot;&gt;&lt;span style=&quot;color:#bdbdbd;&quot;&gt;Spawner&lt;/span&gt;&lt;span style=&quot;color:#39cc9b;&quot;&gt;-&amp;gt;&lt;/span&gt;&lt;span style=&quot;color:#e1bfff;&quot;&gt;OnSpawnTab&lt;/span&gt;&lt;span style=&quot;color:#bdbdbd;&quot;&gt;.&lt;/span&gt;&lt;span style=&quot;color:#39cc9b;&quot;&gt;Execute&lt;/span&gt;&lt;/pre&gt;&lt;/div&gt;" style="html=1;whiteSpace=wrap;" vertex="1" parent="WIyWlLk6GJQsqaUBKTNV-1">
          <mxGeometry x="835" y="1120" width="185" height="50" as="geometry" />
        </mxCell>
        <mxCell id="_YB7RwbnGkdV1RqKMvM7-168" style="edgeStyle=orthogonalEdgeStyle;rounded=0;orthogonalLoop=1;jettySize=auto;html=1;entryX=0;entryY=0.5;entryDx=0;entryDy=0;dashed=1;endArrow=diamond;endFill=1;" edge="1" parent="WIyWlLk6GJQsqaUBKTNV-1" source="_YB7RwbnGkdV1RqKMvM7-161" target="_YB7RwbnGkdV1RqKMvM7-167">
          <mxGeometry relative="1" as="geometry" />
        </mxCell>
        <mxCell id="_YB7RwbnGkdV1RqKMvM7-171" value="INNER" style="edgeLabel;html=1;align=center;verticalAlign=middle;resizable=0;points=[];" vertex="1" connectable="0" parent="_YB7RwbnGkdV1RqKMvM7-168">
          <mxGeometry x="-0.0476" y="3" relative="1" as="geometry">
            <mxPoint as="offset" />
          </mxGeometry>
        </mxCell>
        <mxCell id="_YB7RwbnGkdV1RqKMvM7-161" value="&lt;div style=&quot;background-color:#262626;color:#d0d0d0&quot;&gt;&lt;pre style=&quot;font-family:&#39;JetBrains Mono&#39;,monospace;font-size:8.3pt;&quot;&gt;&lt;span style=&quot;color:#c191ff;&quot;&gt;FWorkflowTabFactory&lt;/span&gt;::&lt;/pre&gt;&lt;pre style=&quot;font-family:&#39;JetBrains Mono&#39;,monospace;font-size:8.3pt;&quot;&gt;&lt;span style=&quot;color:#39cc9b;&quot;&gt;OnSpawnTab&lt;/span&gt;&lt;/pre&gt;&lt;/div&gt;" style="html=1;whiteSpace=wrap;fillColor=#f0a30a;fontColor=#000000;strokeColor=#BD7000;" vertex="1" parent="WIyWlLk6GJQsqaUBKTNV-1">
          <mxGeometry x="440" y="1270" width="185" height="50" as="geometry" />
        </mxCell>
        <mxCell id="_YB7RwbnGkdV1RqKMvM7-170" style="edgeStyle=orthogonalEdgeStyle;rounded=0;orthogonalLoop=1;jettySize=auto;html=1;entryX=0;entryY=0.5;entryDx=0;entryDy=0;" edge="1" parent="WIyWlLk6GJQsqaUBKTNV-1" source="_YB7RwbnGkdV1RqKMvM7-167" target="_YB7RwbnGkdV1RqKMvM7-169">
          <mxGeometry relative="1" as="geometry" />
        </mxCell>
        <mxCell id="_YB7RwbnGkdV1RqKMvM7-167" value="&lt;div style=&quot;background-color:#262626;color:#d0d0d0&quot;&gt;&lt;pre style=&quot;font-family:&#39;JetBrains Mono&#39;,monospace;font-size:8.3pt;&quot;&gt;&lt;span style=&quot;color:#c191ff;&quot;&gt;FWorkflowTabFactory&lt;/span&gt;::&lt;/pre&gt;&lt;pre style=&quot;font-family:&#39;JetBrains Mono&#39;,monospace;font-size:8.3pt;&quot;&gt;&lt;div&gt;&lt;pre style=&quot;font-family:&#39;JetBrains Mono&#39;,monospace;font-size:8.3pt;&quot;&gt;&lt;span style=&quot;color:#39cc9b;&quot;&gt;SpawnTab&lt;/span&gt;&lt;/pre&gt;&lt;/div&gt;&lt;/pre&gt;&lt;/div&gt;" style="html=1;whiteSpace=wrap;fillColor=#f0a30a;fontColor=#000000;strokeColor=#BD7000;" vertex="1" parent="WIyWlLk6GJQsqaUBKTNV-1">
          <mxGeometry x="835" y="1270" width="185" height="50" as="geometry" />
        </mxCell>
        <mxCell id="_YB7RwbnGkdV1RqKMvM7-169" value="&lt;div style=&quot;background-color:#262626;color:#d0d0d0&quot;&gt;&lt;pre style=&quot;font-family:&#39;JetBrains Mono&#39;,monospace;font-size:8.3pt;&quot;&gt;&lt;span style=&quot;color:#c191ff;&quot;&gt;FWorkflowTabFactory&lt;/span&gt;::&lt;/pre&gt;&lt;pre style=&quot;font-family:&#39;JetBrains Mono&#39;,monospace;font-size:8.3pt;&quot;&gt;&lt;div&gt;&lt;pre style=&quot;font-family:&#39;JetBrains Mono&#39;,monospace;font-size:8.3pt;&quot;&gt;&lt;span style=&quot;color:#39cc9b;&quot;&gt;CreateTabBody&lt;/span&gt;&lt;/pre&gt;&lt;/div&gt;&lt;/pre&gt;&lt;/div&gt;" style="html=1;whiteSpace=wrap;fillColor=#f0a30a;fontColor=#000000;strokeColor=#BD7000;" vertex="1" parent="WIyWlLk6GJQsqaUBKTNV-1">
          <mxGeometry x="1395" y="1270" width="185" height="50" as="geometry" />
        </mxCell>
        <mxCell id="_YB7RwbnGkdV1RqKMvM7-177" value="Tab工厂，描述每个Tab的Slate" style="text;html=1;align=center;verticalAlign=middle;resizable=0;points=[];autosize=1;strokeColor=none;fillColor=none;" vertex="1" parent="WIyWlLk6GJQsqaUBKTNV-1">
          <mxGeometry x="1825" y="-320" width="190" height="30" as="geometry" />
        </mxCell>
        <mxCell id="_YB7RwbnGkdV1RqKMvM7-178" value="定义了一套编辑器行为，包括Toolbar，tabs，layout，command&lt;div&gt;可以通过SetCurrentMode切换&lt;/div&gt;" style="text;html=1;align=center;verticalAlign=middle;resizable=0;points=[];autosize=1;strokeColor=none;fillColor=none;" vertex="1" parent="WIyWlLk6GJQsqaUBKTNV-1">
          <mxGeometry x="1400" y="-325" width="360" height="40" as="geometry" />
        </mxCell>
        <mxCell id="_YB7RwbnGkdV1RqKMvM7-180" value="编辑器，一般用WorkflowCentricApplication" style="text;html=1;align=center;verticalAlign=middle;resizable=0;points=[];autosize=1;strokeColor=none;fillColor=none;" vertex="1" parent="WIyWlLk6GJQsqaUBKTNV-1">
          <mxGeometry x="1070" y="-320" width="250" height="30" as="geometry" />
        </mxCell>
        <mxCell id="_YB7RwbnGkdV1RqKMvM7-181" value="Asset类，继承自UObj" style="text;html=1;align=center;verticalAlign=middle;resizable=0;points=[];autosize=1;strokeColor=none;fillColor=none;" vertex="1" parent="WIyWlLk6GJQsqaUBKTNV-1">
          <mxGeometry x="550" y="-392" width="140" height="30" as="geometry" />
        </mxCell>
        <mxCell id="_YB7RwbnGkdV1RqKMvM7-182" value="Asset类构造工厂&lt;div&gt;描述UE中创建该资源时的操作i&lt;/div&gt;" style="text;html=1;align=center;verticalAlign=middle;resizable=0;points=[];autosize=1;strokeColor=none;fillColor=none;" vertex="1" parent="WIyWlLk6GJQsqaUBKTNV-1">
          <mxGeometry x="345" y="-222" width="190" height="40" as="geometry" />
        </mxCell>
        <mxCell id="_YB7RwbnGkdV1RqKMvM7-183" value="描述Asset行为，如命名，类别，点击时打开Editor目标" style="text;html=1;align=center;verticalAlign=middle;resizable=0;points=[];autosize=1;strokeColor=none;fillColor=none;" vertex="1" parent="WIyWlLk6GJQsqaUBKTNV-1">
          <mxGeometry x="660" y="-213" width="310" height="30" as="geometry" />
        </mxCell>
      </root>
    </mxGraphModel>
  </diagram>
</mxfile>
